<?xml version="1.0" standalone="no"?>
<!DOCTYPE svg PUBLIC "-//W3C//DTD SVG 20010904//EN"
 "http://www.w3.org/TR/2001/REC-SVG-20010904/DTD/svg10.dtd">
<svg version="1.0" xmlns="http://www.w3.org/2000/svg"
 width="414.000000pt" height="414.000000pt" viewBox="0 0 414.000000 414.000000"
 preserveAspectRatio="xMidYMid meet">
<metadata>
Created by potrace 1.11, written by Peter Selinger 2001-2013
</metadata>
<g transform="translate(0.000000,414.000000) scale(0.100000,-0.100000)"
fill="#000000" stroke="none">
<path d="M875 4126 c-114 -36 -207 -116 -255 -219 -23 -48 -61 -211 -166 -707
-94 -443 -142 -649 -152 -657 -22 -18 -11 -16 29 5 30 15 72 17 327 20 234 3
302 0 342 -11 l50 -15 0 219 c0 274 -9 259 153 259 98 0 116 -3 130 -18 16
-17 17 -81 17 -713 0 -756 1 -748 -57 -846 -38 -65 -143 -158 -210 -185 -57
-23 -65 -23 -388 -23 l-330 0 -73 34 c-55 26 -88 51 -137 103 -36 38 -65 76
-66 86 0 9 -21 -75 -45 -188 -39 -177 -45 -217 -42 -296 3 -78 8 -100 36 -156
41 -84 115 -158 194 -197 52 -25 298 -80 1458 -326 1299 -276 1401 -296 1475
-293 64 3 95 11 147 35 105 49 189 138 224 235 12 35 214 957 214 979 0 4 -19
0 -42 -8 -33 -11 -103 -13 -357 -11 l-316 3 -68 32 c-93 44 -169 119 -215 212
l-37 75 -3 715 -3 716 22 18 c17 14 41 17 135 17 163 0 154 15 154 -259 l0
-219 47 14 c35 11 114 14 319 14 296 0 340 -6 436 -63 44 -26 141 -120 150
-147 3 -8 7 -13 10 -10 2 3 40 171 82 375 87 412 91 461 46 578 -30 80 -122
177 -204 216 -50 25 -313 83 -1455 325 -1467 312 -1477 313 -1576 282z m1645
-1566 c18 -18 20 -33 20 -130 0 -154 6 -150 -197 -150 -139 0 -162 -2 -190
-20 -68 -41 -68 -38 -71 -407 l-3 -333 204 0 c265 0 257 4 257 -147 0 -85 -3
-110 -17 -125 -15 -17 -45 -18 -538 -18 -392 0 -524 3 -533 12 -8 8 -12 51
-12 129 0 154 -6 149 192 149 l147 0 3 368 3 367 34 70 c59 119 169 209 296
241 29 7 121 13 218 13 154 1 169 -1 187 -19z"/>
<path d="M154 2438 l-29 -33 33 29 c17 17 32 31 32 33 0 8 -8 1 -36 -29z"/>
<path d="M393 2260 c-17 -10 -37 -28 -42 -39 -7 -13 -11 -128 -11 -323 0 -332
0 -332 60 -363 43 -22 547 -22 590 0 57 30 60 45 60 364 0 164 -4 301 -10 315
-5 14 -24 35 -42 46 -31 19 -51 20 -303 20 -250 0 -272 -2 -302 -20z"/>
<path d="M3084 2270 c-12 -4 -31 -21 -43 -36 -20 -26 -21 -35 -21 -333 0 -335
0 -335 60 -366 43 -22 537 -22 580 0 60 31 60 30 60 370 0 302 -1 312 -21 334
-11 12 -32 26 -46 32 -30 11 -540 11 -569 -1z"/>
<path d="M34 1895 c0 -154 2 -216 3 -137 2 79 2 205 0 280 -1 75 -3 11 -3
-143z"/>
</g>
</svg>
